<svg xmlns="http://www.w3.org/2000/svg" width="1000" height="1000" viewBox="0 0 1000 1000" fill="none"><g clip-path="url(#clip0_7_12)">
<rect width="1000" height="1000" rx="228" fill="black"></rect>
<path d="M500 93.75C568.75 93.75 625 150 625 218.75V656.25H375V218.75C375 150 431.25 93.75 500 93.75ZM427.734 517.578C418.026 517.578 410.156 525.448 410.156 535.156C410.156 544.864 418.026 552.734 427.734 552.734H572.266C581.974 552.734 589.844 544.864 589.844 535.156C589.844 525.448 581.974 517.578 572.266 517.578H427.734ZM427.734 447.266C418.026 447.266 410.156 455.136 410.156 464.844C410.156 474.552 418.026 482.422 427.734 482.422H572.266C581.974 482.422 589.844 474.552 589.844 464.844C589.844 455.136 581.974 447.266 572.266 447.266H427.734ZM427.734 376.953C418.026 376.953 410.156 384.823 410.156 394.531C410.156 404.239 418.026 412.109 427.734 412.109H572.266C581.974 412.109 589.844 404.239 589.844 394.531C589.844 384.823 581.974 376.953 572.266 376.953H427.734ZM427.734 306.641C418.026 306.641 410.156 314.511 410.156 324.219C410.156 333.927 418.026 341.797 427.734 341.797H572.266C581.974 341.797 589.844 333.927 589.844 324.219C589.844 314.511 581.974 306.641 572.266 306.641H427.734ZM427.734 236.328C418.026 236.328 410.156 244.198 410.156 253.906C410.156 263.614 418.026 271.484 427.734 271.484H572.266C581.974 271.484 589.844 263.614 589.844 253.906C589.844 244.198 581.974 236.328 572.266 236.328H427.734Z" fill="white"></path>
<path d="M669.922 418.945C694.731 418.945 714.844 439.058 714.844 463.867V698.242C714.844 723.052 694.731 743.164 669.922 743.164H330.078C305.269 743.164 285.156 723.052 285.156 698.242V463.867C285.156 439.058 305.269 418.945 330.078 418.945H339.844V670.898C339.844 680.606 347.714 688.477 357.422 688.477H642.578C652.286 688.477 660.156 680.606 660.156 670.898V418.945H669.922Z" fill="white"></path>
<path d="M554.673 725.586C545.774 727.648 536.651 729.281 527.344 730.469V851.562H597.656C612.695 851.562 625 863.867 625 878.906C625 893.945 612.695 906.25 597.656 906.25H402.344C387.305 906.25 375 893.945 375 878.906C375 863.867 387.305 851.562 402.344 851.562H472.656V725.586H554.673ZM312.5 375C327.539 375 339.844 387.305 339.844 402.344V506.836H285.156V402.344C285.156 387.305 297.461 375 312.5 375ZM687.5 375C702.539 375 714.844 387.305 714.844 402.344V506.836H660.156V402.344C660.156 387.305 672.461 375 687.5 375Z" fill="white"></path>
</g><defs>
<clipPath id="clip0_7_12">
<rect width="1000" height="1000" rx="228" fill="white"></rect>
</clipPath>
</defs></svg>